<?xml version="1.0" standalone="no"?>
<!DOCTYPE svg PUBLIC "-//W3C//DTD SVG 20010904//EN"
 "http://www.w3.org/TR/2001/REC-SVG-20010904/DTD/svg10.dtd">
<svg version="1.0" xmlns="http://www.w3.org/2000/svg"
 width="661.000000pt" height="720.000000pt" viewBox="0 0 661.000000 720.000000"
 preserveAspectRatio="xMidYMid meet">
<metadata>
Created by potrace 1.15, written by Peter Selinger 2001-2017
</metadata>
<g transform="translate(0.000000,720.000000) scale(0.100000,-0.100000)"
fill="#000000" stroke="none">
<path d="M6288 7164 c-2 -1 -204 -9 -448 -17 -245 -8 -454 -15 -465 -16 -473
-16 -899 -29 -965 -30 -179 -3 -139 22 -453 -295 -153 -154 -268 -266 -256
-249 13 18 20 35 17 39 -8 8 -41 -10 -37 -21 1 -4 -488 -507 -1087 -1117 -599
-611 -1090 -1113 -1092 -1117 -3 -10 563 -39 1018 -52 212 -7 387 -13 389 -15
9 -8 -367 -389 -1279 -1294 -539 -535 -980 -976 -980 -980 0 -4 105 -10 233
-13 127 -4 339 -10 470 -14 141 -4 236 -10 234 -16 -4 -12 -161 -191 -457
-520 -4 -4 -13 0 -21 9 -8 10 -9 15 -2 11 7 -4 68 57 158 155 122 135 143 164
128 169 -10 4 -136 8 -281 8 -230 1 -263 3 -269 17 -4 11 17 39 68 90 l73 74
-171 0 c-132 0 -173 3 -182 14 -9 11 160 184 846 867 472 470 946 940 1053
1046 107 106 192 194 190 196 -4 4 -922 38 -998 37 -47 0 -37 30 34 101 38 38
64 70 59 70 -6 1 -82 4 -170 8 -134 5 -160 9 -163 22 -2 9 419 445 1090 1129
601 612 1095 1119 1096 1127 3 11 -2 13 -17 8 -13 -4 -21 -2 -21 5 0 8 -9 10
-25 6 -15 -4 -25 -2 -25 4 0 7 -8 9 -20 5 -12 -4 -20 -2 -20 5 0 8 -9 10 -25
6 -15 -4 -25 -2 -25 5 0 7 -11 8 -31 4 -24 -6 -30 -4 -24 5 6 10 1 12 -23 7
-21 -4 -32 -3 -32 5 0 7 -14 8 -40 4 -27 -4 -40 -3 -40 5 0 8 -13 9 -40 5 -27
-4 -40 -3 -40 5 0 8 -23 9 -77 5 -55 -5 -74 -4 -63 3 11 8 -28 11 -133 11
-103 0 -146 -3 -142 -11 5 -7 -14 -8 -64 -3 -52 5 -71 3 -71 -5 0 -9 -13 -10
-46 -5 -36 5 -45 4 -39 -6 6 -9 -2 -11 -34 -5 -27 4 -41 3 -41 -4 0 -6 -12 -8
-30 -4 -19 3 -30 1 -30 -5 0 -8 -11 -9 -32 -5 -24 5 -29 3 -23 -7 6 -9 0 -10
-25 -5 -23 5 -31 4 -25 -4 5 -8 -1 -10 -19 -5 -17 4 -26 2 -26 -6 0 -7 -8 -9
-20 -5 -12 4 -20 2 -20 -5 0 -7 -8 -9 -20 -5 -12 4 -20 2 -20 -5 0 -7 -8 -9
-20 -5 -11 3 -20 2 -20 -3 0 -6 -10 -8 -22 -4 -15 4 -19 2 -13 -7 5 -10 2 -11
-14 -6 -13 4 -21 2 -21 -5 0 -7 -7 -10 -15 -6 -8 3 -15 1 -15 -5 0 -6 -9 -8
-21 -4 -16 5 -19 4 -14 -5 5 -9 1 -10 -15 -5 -17 5 -21 4 -15 -6 6 -9 3 -11
-8 -6 -10 3 -17 2 -17 -4 0 -6 -9 -8 -21 -4 -16 5 -19 4 -14 -6 6 -9 3 -11 -8
-6 -10 3 -17 2 -17 -3 0 -5 -7 -6 -17 -3 -12 5 -14 3 -8 -7 6 -10 4 -12 -8 -7
-10 3 -17 2 -17 -3 0 -5 -7 -6 -17 -3 -12 5 -14 3 -8 -7 6 -10 4 -12 -8 -7
-10 3 -17 2 -17 -3 0 -5 -7 -6 -17 -3 -12 5 -14 3 -8 -7 6 -10 4 -12 -8 -7
-10 3 -17 2 -17 -4 0 -6 -5 -7 -10 -4 -5 3 -10 2 -10 -4 0 -6 -7 -7 -17 -4
-10 4 -14 2 -10 -4 8 -12 -20 -26 -34 -17 -5 3 -9 0 -9 -6 0 -6 -4 -8 -10 -5
-5 3 -10 1 -10 -5 0 -6 -4 -8 -10 -5 -5 3 -10 1 -10 -5 0 -6 -4 -8 -10 -5 -5
3 -10 1 -10 -5 0 -6 -4 -8 -10 -5 -5 3 -10 1 -10 -5 0 -6 -4 -8 -10 -5 -5 3
-10 1 -10 -5 0 -6 -4 -8 -10 -5 -5 3 -10 1 -10 -5 0 -6 -4 -8 -10 -5 -5 3 -10
2 -10 -4 0 -6 -10 -15 -21 -22 -17 -9 -20 -8 -14 3 3 7 0 5 -8 -4 -8 -10 -17
-15 -20 -11 -4 3 -7 1 -7 -5 0 -6 -10 -16 -21 -23 -17 -9 -20 -8 -14 3 5 7 -3
1 -18 -14 -27 -29 -43 -37 -32 -15 4 6 -3 1 -15 -13 -12 -14 -19 -18 -15 -10
4 8 -2 4 -13 -9 -10 -13 -24 -21 -30 -17 -6 3 -14 1 -18 -5 -4 -8 -3 -9 4 -5
25 15 10 -3 -16 -20 -19 -13 -24 -13 -17 -3 6 8 -1 3 -14 -11 -13 -14 -20 -18
-16 -10 4 8 -3 4 -15 -10 -12 -14 -19 -18 -15 -10 4 8 -5 1 -21 -16 -38 -40
-82 -75 -69 -54 6 9 -1 4 -15 -10 -14 -14 -21 -19 -16 -10 5 8 -11 -6 -35 -31
-24 -25 -37 -36 -29 -25 8 12 -27 -23 -78 -76 -51 -53 -130 -132 -175 -175
-45 -42 -73 -71 -62 -64 11 7 0 -6 -25 -29 -25 -23 -38 -39 -30 -35 8 4 -1 -8
-20 -25 -19 -17 -28 -29 -20 -25 8 4 2 -5 -15 -20 -16 -14 -23 -24 -15 -20 8
4 4 -3 -9 -14 -13 -12 -19 -21 -15 -21 5 0 -2 -10 -16 -21 -14 -11 -18 -18
-10 -14 8 4 4 -3 -10 -14 -14 -11 -21 -21 -16 -21 6 0 1 -7 -10 -15 -10 -8
-15 -15 -10 -15 6 0 1 -7 -10 -16 -10 -8 -12 -13 -4 -9 8 4 4 -3 -10 -15 -14
-12 -19 -19 -12 -15 11 6 12 3 3 -13 -6 -11 -18 -22 -26 -26 -9 -3 -13 -10
-10 -16 3 -5 1 -10 -6 -10 -7 0 -9 -3 -6 -7 4 -3 -1 -12 -11 -20 -11 -10 -12
-12 -2 -8 10 4 9 2 -2 -8 -10 -8 -15 -17 -11 -20 3 -4 1 -7 -6 -7 -7 0 -9 -4
-6 -10 3 -5 1 -10 -6 -10 -7 0 -9 -3 -6 -7 4 -3 -1 -12 -11 -20 -9 -8 -11 -12
-4 -8 10 5 10 1 1 -19 -7 -14 -16 -23 -20 -20 -5 3 -6 -3 -2 -12 4 -12 3 -15
-5 -10 -8 5 -10 1 -5 -10 4 -12 3 -15 -5 -10 -8 5 -10 1 -5 -10 5 -13 3 -15
-7 -9 -8 5 -11 4 -7 -3 10 -15 -3 -43 -16 -35 -6 4 -8 0 -4 -10 3 -10 2 -17
-4 -17 -6 0 -7 -4 -4 -10 3 -5 2 -10 -4 -10 -6 0 -7 -7 -4 -17 4 -10 2 -14 -4
-10 -12 8 -26 -20 -17 -34 3 -5 0 -9 -6 -9 -6 0 -8 -4 -5 -10 3 -5 1 -10 -5
-10 -7 0 -10 -7 -6 -15 3 -8 1 -15 -4 -15 -5 0 -6 -7 -3 -17 5 -12 3 -14 -7
-8 -10 6 -12 4 -7 -8 3 -10 2 -17 -3 -17 -5 0 -7 -7 -4 -15 4 -8 1 -15 -5 -15
-6 0 -8 -7 -4 -17 5 -11 3 -14 -6 -8 -10 6 -11 2 -6 -15 5 -16 4 -20 -5 -15
-9 5 -10 1 -5 -15 5 -16 4 -20 -5 -15 -9 5 -10 1 -5 -15 5 -16 4 -20 -5 -15
-9 5 -10 1 -5 -15 5 -17 4 -21 -6 -15 -9 6 -11 2 -7 -13 4 -12 2 -22 -4 -22
-5 0 -6 -9 -3 -20 4 -12 2 -20 -5 -20 -7 0 -10 -7 -6 -15 3 -8 1 -15 -5 -15
-6 0 -8 -9 -4 -20 4 -12 2 -20 -5 -20 -7 0 -9 -8 -5 -20 4 -12 2 -20 -5 -20
-8 0 -10 -9 -6 -25 4 -15 2 -25 -4 -25 -7 0 -9 -8 -5 -20 4 -12 2 -20 -5 -20
-8 0 -9 -10 -5 -31 6 -24 4 -30 -5 -24 -10 6 -12 1 -7 -23 4 -19 2 -32 -4 -32
-6 0 -7 -14 -3 -36 5 -29 4 -35 -6 -29 -10 6 -12 -1 -6 -33 4 -29 3 -42 -5
-42 -8 0 -9 -17 -4 -55 3 -30 3 -55 -2 -55 -4 0 -8 -99 -8 -219 0 -121 4 -217
8 -214 5 3 6 -20 2 -51 -5 -39 -4 -56 4 -56 8 0 9 -13 5 -40 -5 -28 -3 -40 5
-40 8 0 10 -11 5 -36 -5 -28 -4 -35 6 -29 9 6 10 0 5 -24 -4 -21 -3 -31 5 -31
8 0 9 -10 5 -30 -4 -18 -2 -30 3 -30 6 0 8 -9 5 -20 -3 -12 0 -20 7 -20 7 0 9
-8 5 -20 -4 -12 -2 -20 5 -20 6 0 8 -10 4 -25 -4 -15 -2 -25 5 -25 6 0 8 -7 5
-15 -4 -8 -1 -15 6 -15 7 0 9 -8 5 -20 -4 -12 -2 -20 5 -20 7 0 9 -8 5 -21 -5
-16 -4 -19 5 -14 9 5 10 2 5 -14 -4 -12 -2 -21 4 -21 6 0 8 -7 5 -15 -4 -8 -1
-15 6 -15 7 0 10 -7 6 -15 -3 -8 -1 -15 5 -15 6 0 9 -7 5 -15 -3 -8 -1 -15 5
-15 6 0 9 -7 5 -15 -3 -8 -1 -15 4 -15 5 0 7 -7 4 -15 -4 -8 -1 -15 5 -15 6 0
8 -7 4 -17 -5 -12 -3 -14 7 -8 10 6 12 4 7 -8 -3 -10 -2 -17 3 -17 5 0 7 -7 4
-15 -4 -8 -1 -15 6 -15 6 0 8 -5 5 -10 -3 -5 -1 -10 5 -10 7 0 10 -7 6 -15 -3
-8 -1 -15 5 -15 6 0 7 -4 4 -10 -3 -6 -1 -10 5 -10 6 0 8 -5 5 -10 -3 -5 -2
-10 4 -10 6 0 7 -7 4 -17 -5 -12 -3 -14 7 -8 10 6 12 4 7 -8 -3 -10 -2 -17 4
-17 6 0 7 -5 4 -10 -3 -6 -1 -10 5 -10 6 0 8 -4 5 -10 -3 -5 -1 -10 5 -10 6 0
8 -5 5 -10 -3 -5 -1 -10 5 -10 6 0 8 -4 5 -10 -3 -6 -1 -10 5 -10 6 0 8 -5 5
-10 -3 -5 -1 -10 5 -10 6 0 8 -4 5 -10 -3 -5 -1 -10 5 -10 6 0 8 -4 5 -10 -3
-5 -1 -10 5 -10 6 0 8 -4 5 -10 -3 -5 -1 -10 5 -10 6 0 8 -4 5 -10 -3 -5 -2
-10 4 -10 6 0 15 -10 22 -21 9 -17 8 -20 -3 -14 -7 3 -5 0 4 -8 10 -8 15 -17
11 -20 -3 -4 -1 -7 6 -7 7 0 9 -4 6 -10 -3 -5 -1 -10 5 -10 6 0 9 -4 5 -9 -3
-6 3 -15 14 -20 10 -6 21 -18 25 -26 4 -11 2 -14 -7 -10 -6 4 -1 -3 13 -15 14
-12 18 -19 10 -15 -8 4 -6 -1 4 -9 11 -9 16 -16 11 -16 -5 0 0 -7 11 -16 10
-8 12 -13 4 -9 -8 4 -6 -1 5 -10 11 -9 20 -20 20 -25 0 -5 9 -16 20 -25 11 -9
13 -14 5 -10 -8 4 -4 -3 10 -15 14 -12 18 -19 10 -15 -8 3 -1 -6 15 -20 17
-15 23 -24 15 -20 -8 4 1 -8 20 -25 19 -17 28 -28 20 -24 -8 4 1 -8 21 -27 19
-19 28 -29 19 -24 -8 6 5 -10 31 -35 25 -25 38 -40 30 -35 -9 6 9 -13 39 -42
30 -29 51 -52 45 -53 -5 0 8 -18 30 -40 21 -21 42 -37 46 -35 4 3 29 -19 56
-48 26 -29 41 -44 33 -33 -8 11 8 0 37 -23 58 -48 87 -86 78 -101 -9 -14 29
-12 45 2 23 21 -104 -120 -549 -612 -232 -256 -420 -472 -419 -480 6 -31 43
-19 186 61 495 276 1271 708 1290 718 22 12 23 11 13 -8 -10 -18 -5 -23 55
-51 93 -44 193 -80 218 -79 11 0 -22 17 -74 38 -141 57 -170 70 -170 79 0 5
429 248 953 541 888 497 1276 715 1304 734 8 5 9 16 4 29 l-8 21 -671 -2
c-370 -1 -672 0 -672 3 0 4 595 482 1322 1064 727 581 1377 1101 1445 1156 68
54 123 102 123 107 0 5 -235 9 -548 9 -591 0 -1004 9 -1000 21 2 4 192 184
423 400 231 216 476 444 544 508 l124 116 77 -83 78 -82 -62 -58 c-33 -32
-236 -222 -451 -422 -214 -200 -391 -368 -393 -372 -2 -4 275 -9 615 -10 550
-3 618 -5 621 -19 2 -9 -46 -54 -129 -120 l-131 -104 151 -6 c83 -4 154 -9
157 -11 2 -3 -578 -472 -1291 -1042 -712 -570 -1295 -1038 -1295 -1040 0 -3
219 -2 486 1 528 7 504 9 504 -48 0 -24 -16 -35 -151 -110 l-150 -84 200 -3
c111 -1 201 -6 201 -10 0 -4 -462 -266 -1027 -581 -566 -316 -1040 -583 -1055
-593 -30 -21 -38 -41 -13 -32 8 4 15 1 15 -5 0 -6 7 -8 15 -5 8 4 15 1 15 -5
0 -6 7 -8 15 -5 8 4 15 1 15 -5 0 -6 7 -8 15 -5 8 4 15 1 15 -6 0 -7 7 -10 15
-6 8 3 15 1 15 -5 0 -6 9 -8 20 -4 12 4 20 2 20 -5 0 -7 8 -9 21 -5 16 5 19 4
14 -5 -5 -9 -2 -10 14 -5 13 4 21 2 21 -5 0 -8 9 -10 26 -6 18 5 24 3 18 -5
-5 -9 0 -10 20 -5 16 4 26 2 26 -4 0 -7 8 -9 20 -5 12 4 20 2 20 -5 0 -8 10
-9 31 -5 24 6 30 4 24 -5 -6 -10 -1 -12 23 -7 20 4 32 2 32 -4 0 -7 12 -9 35
-5 23 5 35 3 35 -4 0 -8 13 -10 41 -5 32 6 40 4 34 -5 -6 -10 5 -11 49 -6 31
4 56 4 56 -1 0 -4 101 -8 224 -8 127 0 222 4 219 9 -3 5 19 6 51 2 38 -5 56
-4 56 3 0 7 14 9 40 5 28 -5 40 -3 40 6 0 8 10 9 30 5 20 -4 30 -3 30 5 0 8
10 9 30 5 19 -4 30 -3 30 4 0 7 10 9 25 5 16 -4 25 -2 25 5 0 7 9 9 25 5 16
-4 25 -2 25 6 0 7 8 9 20 5 12 -4 20 -2 20 5 0 6 10 8 26 4 20 -5 25 -4 19 6
-5 9 -2 10 14 5 13 -4 21 -2 21 5 0 7 8 9 20 5 11 -4 20 -2 20 4 0 6 7 8 15 5
8 -4 15 -1 15 6 0 7 8 9 20 5 11 -4 20 -2 20 4 0 6 7 8 15 5 8 -4 15 -1 15 5
0 6 7 8 15 5 8 -4 15 -1 15 5 0 6 7 8 15 5 8 -4 15 -1 15 5 0 6 7 8 15 5 8 -4
15 -1 15 5 0 6 7 8 17 4 12 -5 14 -3 8 7 -6 10 -4 12 8 7 10 -3 17 -2 17 3 0
5 7 6 17 3 12 -5 14 -3 8 7 -6 10 -4 12 8 7 10 -3 17 -2 17 3 0 5 7 7 15 4 8
-4 15 -1 15 6 0 6 4 9 9 6 14 -9 42 5 34 17 -4 6 0 8 10 4 10 -3 17 -2 17 4 0
6 5 7 10 4 6 -3 10 -1 10 5 0 6 4 9 9 6 12 -8 42 4 36 14 -7 11 24 22 37 13 7
-4 8 -1 3 7 -6 10 -4 12 9 7 11 -5 15 -3 10 5 -5 8 -2 9 10 5 11 -5 15 -3 10
5 -5 8 -2 9 10 5 11 -5 15 -3 10 5 -5 8 -2 9 10 5 9 -4 15 -3 12 2 -3 4 6 13
20 20 18 8 23 8 18 0 -4 -8 0 -8 15 0 11 7 21 16 21 22 0 6 5 7 10 4 6 -3 10
-2 10 4 0 6 10 15 21 22 17 9 20 8 14 -3 -5 -7 3 -1 18 15 27 28 43 36 32 15
-4 -7 3 -2 15 12 12 14 19 18 15 10 -4 -8 2 -4 13 9 10 13 24 21 30 17 6 -3
14 -1 18 5 4 8 3 9 -4 5 -25 -15 -10 3 16 20 19 13 24 13 17 3 -5 -8 1 -3 14
11 13 14 20 18 16 10 -4 -8 3 -4 15 10 12 14 19 18 15 10 -4 -8 5 -1 21 16 38
40 82 75 69 54 -6 -9 1 -4 14 10 13 14 20 18 16 10 -4 -8 10 3 31 26 22 22 32
31 24 20 -8 -12 24 18 70 65 47 47 63 60 35 30 -27 -31 5 -2 72 64 123 120
166 169 75 85 -27 -25 -12 -9 32 35 45 43 72 73 60 65 -11 -8 -2 2 20 24 23
21 34 35 26 31 -8 -4 1 8 20 25 19 17 28 29 20 25 -8 -4 -1 5 15 20 17 14 23
24 15 20 -8 -4 -6 1 5 10 11 9 20 20 20 25 0 5 9 16 20 25 11 9 13 14 5 10 -8
-4 -4 3 10 15 14 12 18 19 10 15 -8 -4 -4 3 10 14 14 11 21 21 16 21 -6 0 -1
7 10 16 10 8 12 13 4 9 -8 -4 -6 1 4 9 11 9 16 16 10 16 -5 0 0 7 10 15 11 8
16 15 11 15 -5 0 0 7 11 16 10 8 13 12 6 9 -11 -6 -12 -3 -3 14 7 11 17 21 23
21 6 0 8 3 5 7 -4 3 1 12 11 20 9 8 11 11 4 8 -11 -6 -12 -3 -3 14 7 11 16 21
22 21 6 0 7 5 4 10 -3 6 -1 10 5 10 6 0 8 5 5 10 -3 6 -1 10 5 10 6 0 8 5 5
10 -3 6 -1 10 5 10 6 0 8 5 5 10 -3 6 -1 10 5 10 6 0 8 5 5 10 -3 6 -1 10 5
10 6 0 8 5 5 10 -3 6 -1 10 5 10 6 0 8 5 5 10 -3 6 -1 10 5 10 6 0 8 5 5 10
-3 6 -1 10 5 10 6 0 8 5 5 10 -3 6 -1 10 5 10 6 0 8 5 5 10 -3 6 -2 10 4 10 6
0 7 7 4 17 -5 12 -3 14 7 8 10 -6 12 -4 7 8 -3 10 -2 17 4 17 6 0 7 5 4 10 -3
6 -1 10 5 10 6 0 8 5 5 10 -3 6 -1 10 5 10 7 0 10 7 6 15 -3 8 -1 15 4 15 5 0
6 7 3 17 -5 12 -3 14 7 8 10 -6 12 -4 7 8 -3 10 -2 17 3 17 5 0 7 7 4 15 -4 8
-1 15 6 15 6 0 8 4 5 10 -3 6 -1 10 5 10 7 0 10 7 6 15 -3 8 -1 15 5 15 6 0 9
7 5 15 -3 8 -1 15 5 15 6 0 9 7 5 15 -3 8 -1 15 5 15 6 0 9 7 5 15 -3 8 -1 15
5 15 6 0 8 9 4 21 -5 16 -4 19 6 14 9 -6 11 -2 7 13 -4 12 -2 22 4 22 5 0 6 9
3 20 -4 12 -2 20 5 20 7 0 10 7 6 15 -3 8 -1 15 5 15 6 0 8 9 4 20 -4 12 -2
20 5 20 8 0 10 9 6 25 -4 15 -2 25 4 25 7 0 9 8 5 20 -4 12 -2 20 5 20 8 0 10
9 6 25 -4 15 -2 25 5 25 7 0 8 11 4 31 -6 24 -4 30 5 24 10 -6 12 -1 7 23 -4
20 -2 32 4 32 7 0 8 14 4 40 -5 28 -3 40 5 40 8 0 10 12 5 41 -6 32 -4 40 5
34 10 -6 12 7 6 64 -4 48 -3 70 4 66 7 -4 10 49 10 155 0 112 -3 159 -11 155
-7 -5 -8 14 -3 64 5 51 3 71 -5 71 -8 0 -9 13 -5 40 5 28 3 40 -5 40 -8 0 -10
11 -5 35 4 24 3 35 -6 35 -8 0 -9 10 -5 30 4 19 3 30 -4 30 -6 0 -8 12 -4 32
5 24 3 29 -7 23 -10 -6 -11 -2 -6 19 4 15 2 26 -4 26 -6 0 -8 10 -4 25 4 16 2
25 -6 25 -7 0 -9 8 -5 20 4 12 2 20 -5 20 -7 0 -9 8 -5 20 4 12 2 20 -5 20 -7
0 -9 8 -5 20 4 11 2 20 -4 20 -6 0 -8 7 -5 15 4 8 1 15 -6 15 -7 0 -9 8 -5 20
4 11 2 20 -4 20 -6 0 -8 7 -5 15 4 8 1 15 -5 15 -6 0 -8 7 -5 15 4 8 1 15 -6
15 -7 0 -10 7 -6 15 3 8 1 15 -5 15 -6 0 -9 7 -5 15 3 8 1 15 -4 15 -5 0 -7 7
-4 15 4 8 1 15 -5 15 -6 0 -8 7 -5 15 4 8 1 15 -6 15 -6 0 -8 5 -5 10 3 6 2
10 -4 10 -6 0 -8 7 -5 15 4 8 1 15 -5 15 -6 0 -8 7 -4 17 5 12 3 14 -7 8 -10
-6 -12 -4 -7 8 3 10 2 17 -4 17 -6 0 -7 5 -4 10 3 6 2 10 -4 10 -6 0 -7 7 -4
17 5 12 3 14 -7 8 -10 -6 -12 -4 -7 8 3 10 2 17 -4 17 -6 0 -7 5 -4 10 3 6 2
10 -4 10 -6 0 -7 7 -4 17 5 12 3 14 -7 8 -8 -5 -11 -3 -8 5 2 8 -4 22 -15 33
-10 10 -16 25 -13 33 4 10 2 12 -6 8 -8 -5 -9 -2 -5 10 5 11 3 15 -5 10 -8 -5
-9 -2 -5 10 4 9 3 15 -2 12 -4 -3 -13 6 -20 20 -9 20 -9 24 1 19 7 -4 5 0 -4
8 -10 8 -15 17 -11 20 3 4 1 7 -6 7 -7 0 -9 5 -6 10 3 6 1 10 -6 10 -7 0 -9 3
-6 7 4 3 -1 12 -11 20 -11 10 -12 12 -2 8 8 -4 6 1 -4 9 -11 9 -16 16 -11 16
5 0 0 7 -11 16 -10 8 -12 13 -4 9 10 -4 9 -2 -2 8 -10 8 -15 17 -12 20 3 3 -3
10 -14 16 -11 6 -22 18 -26 26 -4 11 -2 14 7 10 6 -4 1 3 -13 15 -14 12 -18
19 -10 15 8 -4 4 3 -10 15 -14 12 -18 19 -10 15 8 -4 6 1 -5 10 -11 9 -20 20
-20 25 0 5 -9 16 -20 25 -11 9 -13 13 -5 10 8 -4 2 5 -15 20 -16 14 -23 23
-15 20 8 -4 1 6 -15 22 -17 15 -26 26 -20 23 6 -3 -1 5 -15 17 -14 13 -22 23
-18 23 24 0 -143 208 -168 209 -10 1 -214 -187 -907 -837 -267 -250 -265 -245
-92 -252 l120 -6 -153 -2 c-97 -1 -152 2 -150 8 2 5 262 251 579 547 316 296
878 822 1249 1168 371 347 684 638 697 648 25 20 31 55 11 62 -18 5 -107 13
-110 9z m96 -36 c-3 -7 -584 -552 -1290 -1211 -706 -659 -1284 -1203 -1284
-1208 0 -5 304 -9 770 -9 610 0 770 -3 770 -12 -1 -7 -647 -528 -1436 -1158
-789 -630 -1443 -1153 -1452 -1163 -16 -18 1 -19 678 -12 621 6 693 6 680 -8
-22 -23 -3589 -2009 -3601 -2005 -5 2 331 379 746 838 l756 835 -73 6 c-40 4
-251 9 -468 13 -217 3 -398 10 -402 14 -4 4 500 511 1120 1127 620 616 1131
1126 1135 1133 5 8 7 15 5 17 -2 2 -320 15 -706 28 -387 14 -706 28 -710 31
-3 4 80 93 184 199 163 164 2316 2359 2409 2456 l32 33 964 33 c1149 39 1180
39 1173 23z"/>
<path d="M5904 7085 c-3 -14 -4 -32 0 -40 3 -9 -3 -24 -14 -35 -19 -19 -21
-19 -26 -3 -30 92 -50 95 -46 7 2 -50 6 -62 28 -80 22 -18 25 -27 19 -53 -4
-20 -2 -37 5 -46 17 -21 30 -19 30 4 0 18 3 19 33 9 17 -5 41 -21 53 -34 l20
-24 24 25 c18 19 20 25 8 25 -22 0 -50 47 -43 70 3 10 0 28 -6 39 -10 15 -10
23 -1 33 9 12 6 20 -17 42 -16 15 -31 41 -35 57 -7 36 -23 38 -32 4z"/>
<path d="M4855 7070 c-4 -6 -3 -35 1 -66 5 -43 12 -59 31 -71 21 -14 24 -22
18 -50 -4 -21 -2 -40 6 -49 16 -20 29 -17 29 5 0 19 3 19 38 7 23 -8 43 -24
52 -42 8 -15 21 -34 28 -42 6 -7 12 -25 12 -38 0 -30 24 -89 39 -99 6 -3 25
-3 42 0 23 5 28 10 19 20 -7 8 -7 15 -1 19 5 4 10 19 11 34 0 15 2 42 3 61 2
30 -3 37 -38 57 -22 13 -50 23 -61 24 -27 0 -57 44 -49 71 4 11 1 27 -6 35
-10 12 -10 20 -2 34 10 14 7 22 -18 46 -16 15 -29 34 -29 41 0 7 -10 13 -21
13 -18 0 -20 -5 -16 -26 3 -18 -2 -33 -14 -45 -18 -18 -20 -18 -25 -2 -23 71
-35 86 -49 63z"/>
<path d="M4061 6856 c-12 -14 7 -61 37 -94 6 -7 12 -25 12 -38 0 -30 24 -89
39 -99 6 -3 25 -3 42 0 23 5 28 10 19 20 -7 8 -7 15 -1 19 5 4 10 19 11 34 0
15 2 42 3 61 2 30 -3 37 -38 57 -22 13 -50 23 -63 24 -12 0 -25 7 -28 15 -8
19 -18 19 -33 1z"/>
<path d="M4617 6754 c-4 -4 -7 -16 -7 -27 0 -11 -7 -28 -15 -37 -18 -20 -9
-55 22 -83 17 -14 25 -16 48 -7 16 6 34 9 42 6 23 -9 15 45 -15 99 -25 47 -56
67 -75 49z"/>
<path d="M5577 6754 c-4 -4 -7 -16 -7 -27 0 -11 -7 -28 -15 -37 -18 -20 -9
-55 22 -83 17 -14 25 -16 48 -7 16 6 34 9 42 6 23 -9 15 45 -15 99 -25 47 -56
67 -75 49z"/>
<path d="M4075 6673 c-4 -17 -15 -40 -24 -50 -9 -11 -21 -28 -27 -39 -6 -10
-22 -19 -34 -19 -18 0 -26 -9 -36 -40 l-12 -40 -1 33 c-1 18 4 42 10 54 16 30
0 37 -22 9 -16 -20 -19 -37 -17 -94 2 -45 7 -72 16 -75 6 -2 12 5 12 15 1 11
8 5 21 -19 11 -21 26 -38 34 -38 8 0 15 -4 15 -10 0 -5 6 -10 14 -10 16 0 31
34 21 50 -3 5 6 21 20 34 16 15 22 27 15 31 -18 11 -11 21 35 54 25 18 45 35
45 39 0 4 -13 14 -28 23 -23 13 -31 27 -39 70 -10 52 -10 53 -18 22z"/>
<path d="M5035 6673 c-4 -17 -15 -40 -24 -50 -9 -11 -21 -28 -27 -39 -6 -10
-22 -19 -34 -19 -18 0 -26 -9 -36 -40 l-12 -40 -1 33 c-1 18 4 42 10 54 16 30
0 37 -22 9 -16 -20 -19 -37 -17 -94 2 -45 7 -72 16 -75 6 -2 12 5 12 15 1 11
8 5 21 -19 11 -21 26 -38 34 -38 8 0 15 -4 15 -10 0 -5 6 -10 14 -10 16 0 31
34 21 50 -3 5 6 21 20 34 16 15 22 27 15 31 -18 11 -11 21 35 54 25 18 45 35
45 39 0 4 -13 14 -28 23 -23 13 -31 27 -39 70 -10 52 -10 53 -18 22z"/>
<path d="M4255 6570 c-3 -5 -4 -14 -1 -19 4 -5 -1 -39 -9 -74 -11 -46 -13 -82
-7 -119 7 -50 9 -53 34 -50 20 2 33 -6 56 -34 26 -31 32 -34 51 -25 20 11 21
9 21 -28 0 -32 6 -44 33 -67 28 -24 32 -25 36 -9 1 10 14 30 28 44 17 19 23
33 19 53 -3 17 0 28 9 32 18 7 20 57 3 74 -24 24 -88 11 -88 -18 0 -21 -29
-35 -43 -21 -7 7 -5 17 8 31 15 16 16 24 7 45 -10 21 -8 27 13 43 l25 20 -22
5 c-12 4 -36 0 -52 -8 -16 -8 -34 -15 -41 -15 -7 0 -20 29 -30 65 -17 65 -37
96 -50 75z"/>
<path d="M5215 6570 c-3 -5 -4 -14 -1 -19 4 -5 -1 -39 -9 -74 -11 -46 -13 -82
-7 -119 7 -50 9 -53 34 -50 20 2 33 -6 56 -34 26 -31 32 -34 51 -25 19 11 21
9 21 -19 0 -16 4 -30 8 -30 4 0 36 29 71 64 55 56 62 67 51 80 -23 28 -90 17
-90 -14 0 -21 -29 -35 -43 -21 -7 7 -5 17 8 31 15 16 16 24 7 45 -10 21 -8 27
13 43 l25 20 -22 5 c-12 4 -36 0 -52 -8 -16 -8 -34 -15 -41 -15 -7 0 -20 29
-30 65 -17 65 -37 96 -50 75z"/>
<path d="M3502 6287 c-37 -37 -62 -71 -62 -84 0 -12 15 -33 33 -49 28 -24 32
-25 36 -9 1 10 14 30 28 44 17 19 23 33 19 53 -3 17 0 28 9 32 16 6 21 61 7
70 -5 3 -36 -23 -70 -57z"/>
<path d="M3991 6141 c-7 -13 -11 -35 -8 -48 3 -17 -2 -32 -14 -44 -18 -18 -20
-18 -25 -2 -30 92 -50 95 -46 7 2 -50 6 -62 28 -80 22 -18 25 -27 19 -53 -4
-20 -2 -37 5 -46 17 -21 30 -19 30 4 0 19 3 19 38 7 23 -8 43 -24 52 -42 8
-15 21 -34 28 -42 6 -7 12 -25 12 -38 0 -30 24 -89 39 -99 6 -3 25 -3 42 0 23
5 28 10 19 20 -7 8 -7 15 -1 19 5 4 10 19 11 34 0 15 2 42 3 61 2 30 -3 37
-38 57 -22 13 -50 23 -61 24 -27 0 -57 44 -49 70 3 10 0 28 -7 39 -10 16 -10
23 0 33 9 9 6 18 -15 41 -16 15 -33 45 -39 65 -10 37 -10 37 -23 13z"/>
<path d="M4951 6141 c-7 -13 -11 -35 -8 -48 3 -17 -2 -32 -14 -44 -18 -18 -20
-18 -25 -2 -30 92 -50 95 -46 7 2 -50 6 -62 28 -80 22 -18 25 -27 19 -53 -4
-20 -2 -37 5 -46 17 -21 30 -19 30 5 0 18 2 18 39 5 36 -12 41 -12 56 5 12 13
13 20 5 25 -7 4 -9 18 -6 31 4 13 1 33 -6 44 -10 15 -10 22 0 32 9 9 6 18 -15
41 -16 15 -33 45 -39 65 -10 37 -10 37 -23 13z"/>
<path d="M3111 5887 c-12 -16 1 -58 26 -85 7 -7 13 -25 13 -38 0 -30 24 -89
39 -99 6 -3 25 -3 42 0 23 5 28 10 19 20 -7 8 -7 15 -1 19 5 4 10 19 11 34 0
15 2 42 3 61 2 30 -3 37 -38 57 -22 13 -49 23 -60 24 -12 0 -26 5 -31 10 -8 8
-14 6 -23 -3z"/>
<path d="M3657 5794 c-4 -4 -7 -16 -7 -27 0 -11 -7 -28 -15 -37 -18 -20 -9
-55 22 -83 17 -14 25 -16 48 -7 16 6 34 9 42 6 23 -9 15 45 -15 99 -25 47 -56
67 -75 49z"/>
<path d="M4617 5794 c-4 -4 -7 -16 -7 -27 0 -11 -7 -28 -15 -37 -18 -20 -9
-55 22 -83 17 -14 25 -16 48 -7 16 6 34 9 42 6 23 -9 15 45 -15 99 -25 47 -56
67 -75 49z"/>
<path d="M3115 5713 c-4 -17 -15 -40 -24 -50 -9 -11 -21 -28 -27 -39 -6 -10
-22 -19 -34 -19 -18 0 -26 -9 -36 -40 l-12 -40 -1 33 c-1 18 4 42 10 54 16 30
0 37 -22 9 -16 -20 -19 -37 -17 -94 2 -45 7 -72 16 -75 6 -2 12 5 12 15 1 11
8 5 21 -19 11 -21 26 -38 34 -38 8 0 15 -4 15 -10 0 -5 6 -10 14 -10 16 0 31
34 21 50 -3 5 6 21 20 34 16 15 22 27 15 31 -18 11 -11 21 35 54 25 18 45 35
45 39 0 4 -13 14 -28 23 -23 13 -31 27 -39 70 -10 52 -10 53 -18 22z"/>
<path d="M4075 5713 c-4 -17 -15 -40 -24 -50 -9 -11 -21 -28 -27 -39 -6 -10
-22 -19 -34 -19 -18 0 -26 -9 -36 -40 l-12 -40 -1 33 c-1 18 4 42 10 54 16 30
0 37 -22 9 -16 -20 -19 -37 -17 -94 2 -45 7 -72 16 -75 6 -2 12 5 12 15 1 11
8 5 21 -19 11 -21 26 -38 34 -38 8 0 15 -4 15 -10 0 -5 6 -10 14 -10 16 0 31
34 21 50 -3 5 6 21 20 34 16 15 22 27 15 31 -18 11 -11 21 35 54 25 18 45 35
45 39 0 4 -13 14 -28 23 -23 13 -31 27 -39 70 -10 52 -10 53 -18 22z"/>
<path d="M3295 5610 c-3 -5 -4 -14 -1 -19 4 -5 -1 -39 -9 -74 -11 -46 -13 -82
-7 -119 7 -50 9 -53 34 -50 20 2 33 -6 56 -34 26 -31 32 -34 51 -25 20 11 21
9 21 -28 0 -32 6 -44 33 -67 28 -24 32 -25 36 -9 1 10 14 30 28 44 17 19 23
33 19 53 -3 17 0 28 9 32 18 7 20 57 3 74 -24 24 -88 11 -88 -18 0 -21 -29
-35 -43 -21 -7 7 -5 17 8 31 15 16 16 24 7 45 -10 21 -8 27 13 43 l25 20 -22
5 c-12 4 -36 0 -52 -8 -16 -8 -34 -15 -41 -15 -7 0 -20 29 -30 65 -17 65 -37
96 -50 75z"/>
<path d="M4255 5610 c-3 -5 -4 -14 -1 -19 4 -5 -1 -39 -9 -74 -11 -46 -13 -82
-7 -119 7 -50 9 -53 34 -50 20 2 33 -6 56 -34 29 -35 30 -35 58 -20 16 8 52
36 79 60 42 38 47 45 28 46 -34 0 -53 -11 -53 -30 0 -21 -29 -35 -43 -21 -7 7
-5 17 8 31 15 16 16 24 7 45 -10 21 -8 27 13 43 l25 20 -22 5 c-12 4 -36 0
-52 -8 -16 -8 -34 -15 -41 -15 -7 0 -20 29 -30 65 -17 65 -37 96 -50 75z"/>
<path d="M3031 5181 c-7 -13 -11 -35 -8 -48 3 -17 -2 -32 -14 -44 -18 -18 -20
-18 -25 -2 -30 92 -50 95 -46 7 2 -50 6 -62 28 -80 22 -18 25 -27 19 -53 -4
-20 -2 -37 5 -46 17 -21 30 -19 30 4 0 19 3 19 38 7 23 -8 43 -24 52 -42 8
-15 21 -34 28 -42 6 -7 12 -25 12 -38 0 -30 24 -89 39 -99 6 -3 25 -3 42 0 23
5 28 10 19 20 -7 8 -7 15 -1 19 5 4 10 19 11 34 0 15 2 42 3 61 2 30 -3 37
-38 57 -22 13 -50 23 -61 24 -27 0 -57 44 -49 70 3 10 0 28 -7 39 -10 16 -10
23 0 33 9 9 6 18 -15 41 -16 15 -33 45 -39 65 -10 37 -10 37 -23 13z"/>
<path d="M3991 5181 c-7 -13 -11 -35 -8 -48 3 -17 -2 -32 -14 -44 -18 -18 -20
-18 -25 -2 -30 92 -50 95 -46 7 2 -50 6 -62 28 -80 22 -18 25 -27 19 -53 -4
-20 -2 -37 5 -46 17 -21 30 -19 30 4 0 13 5 18 18 15 10 -3 30 8 51 30 32 33
34 37 21 61 -10 19 -11 28 -2 37 9 9 6 19 -15 41 -16 15 -33 45 -39 65 -10 37
-10 37 -23 13z"/>
<path d="M2159 4914 c-12 -15 -4 -51 17 -72 8 -7 14 -25 14 -38 0 -30 24 -89
39 -99 6 -3 25 -3 42 0 23 5 28 10 19 20 -7 8 -7 15 -1 19 5 4 10 19 11 34 0
15 2 42 3 61 2 29 -3 37 -33 54 -51 29 -97 38 -111 21z"/>
<path d="M2697 4834 c-4 -4 -7 -16 -7 -27 0 -11 -7 -28 -15 -37 -18 -20 -9
-55 22 -83 17 -14 25 -16 48 -7 16 6 34 9 42 6 23 -9 15 45 -15 99 -25 47 -56
67 -75 49z"/>
<path d="M3657 4834 c-4 -4 -7 -16 -7 -27 0 -11 -7 -28 -15 -37 -18 -20 -9
-55 22 -83 17 -14 25 -16 48 -7 16 6 34 9 42 6 23 -9 15 45 -15 99 -25 47 -56
67 -75 49z"/>
<path d="M2155 4753 c-4 -17 -15 -40 -24 -50 -9 -11 -21 -28 -27 -39 -6 -10
-22 -19 -34 -19 -18 0 -26 -9 -36 -40 l-12 -40 -1 33 c-1 18 4 42 10 54 16 30
0 37 -22 9 -16 -20 -19 -37 -17 -94 2 -45 7 -72 16 -75 6 -2 12 5 12 15 1 11
8 5 21 -19 11 -21 26 -38 34 -38 8 0 15 -4 15 -10 0 -5 6 -10 14 -10 16 0 31
34 21 50 -3 5 6 21 20 34 16 15 22 27 15 31 -18 11 -11 21 35 54 25 18 45 35
45 39 0 4 -13 14 -28 23 -23 13 -31 27 -39 70 -10 52 -10 53 -18 22z"/>
<path d="M3115 4753 c-4 -17 -15 -40 -24 -50 -9 -11 -21 -28 -27 -39 -6 -10
-22 -19 -34 -19 -18 0 -26 -9 -36 -40 l-12 -40 -1 33 c-1 18 4 42 10 54 16 30
0 37 -22 9 -16 -20 -19 -37 -17 -94 2 -45 7 -72 16 -75 6 -2 12 5 12 15 1 11
8 5 21 -19 11 -21 26 -38 34 -38 8 0 15 -4 15 -10 0 -5 6 -10 14 -10 16 0 31
34 21 50 -3 5 6 21 20 34 16 15 22 27 15 31 -18 11 -11 21 35 54 25 18 45 35
45 39 0 4 -13 14 -28 23 -23 13 -31 27 -39 70 -10 52 -10 53 -18 22z"/>
<path d="M4025 4668 c-6 -15 -19 -23 -34 -23 -19 0 -27 -8 -37 -40 l-12 -40
-1 33 c-1 18 4 42 10 54 16 30 0 37 -22 9 -16 -20 -19 -37 -17 -94 2 -45 7
-72 16 -75 6 -2 12 5 12 15 1 11 8 5 21 -19 11 -21 26 -38 34 -38 8 0 15 -4
15 -10 0 -5 6 -10 14 -10 16 0 31 34 21 50 -3 5 6 21 20 34 16 15 22 27 15 31
-18 11 -11 21 35 54 25 18 45 35 45 39 -1 14 -72 52 -98 52 -19 0 -30 -7 -37
-22z"/>
<path d="M4885 4656 c-20 -29 -17 -157 3 -164 6 -2 12 5 12 15 1 11 8 5 21
-19 11 -21 26 -38 34 -38 8 0 15 -4 15 -10 0 -5 6 -10 14 -10 16 0 31 34 21
50 -3 5 6 21 20 34 16 15 22 27 15 31 -18 11 -11 21 35 54 25 18 45 35 45 39
0 4 -14 15 -31 25 -42 23 -91 22 -107 -3 -7 -11 -21 -19 -33 -17 -17 1 -24 -6
-35 -38 l-13 -40 3 40 c1 22 6 48 10 58 12 26 -11 21 -29 -7z"/>
<path d="M2335 4650 c-3 -5 -4 -14 -1 -19 4 -5 -1 -39 -9 -74 -11 -46 -13 -81
-7 -119 7 -48 10 -53 31 -50 13 1 29 -2 36 -8 7 -6 63 -13 124 -17 l111 -6 0
29 c0 36 -16 54 -46 54 -35 0 -54 -11 -54 -30 0 -21 -29 -35 -43 -21 -7 7 -5
17 8 31 15 16 16 24 7 45 -10 21 -8 27 13 43 l25 20 -22 5 c-12 4 -36 0 -52
-8 -16 -8 -34 -15 -41 -15 -7 0 -20 29 -30 65 -17 65 -37 96 -50 75z"/>
<path d="M3295 4650 c-3 -5 -4 -14 -1 -19 4 -5 -1 -39 -9 -74 -11 -46 -13 -82
-7 -119 7 -50 9 -53 34 -50 20 2 33 -6 56 -34 26 -31 32 -34 51 -25 20 11 21
9 21 -28 0 -32 6 -44 33 -67 28 -24 32 -25 36 -9 1 10 14 30 28 44 17 19 23
33 19 53 -3 17 0 28 9 32 18 7 20 57 3 74 -24 24 -88 11 -88 -18 0 -21 -29
-35 -43 -21 -7 7 -5 17 8 31 15 16 16 24 7 45 -10 21 -8 27 13 43 l25 20 -22
5 c-12 4 -36 0 -52 -8 -16 -8 -34 -15 -41 -15 -7 0 -20 29 -30 65 -17 65 -37
96 -50 75z"/>
<path d="M4255 4650 c-3 -5 -4 -14 -1 -19 4 -5 -1 -39 -9 -74 -11 -46 -13 -82
-7 -119 7 -50 9 -53 34 -50 20 2 33 -6 56 -34 26 -31 32 -34 51 -25 20 11 21
9 21 -28 0 -32 6 -44 33 -67 28 -24 32 -25 36 -9 1 10 14 30 28 44 17 19 23
33 19 53 -3 17 0 28 9 32 18 7 20 57 3 74 -24 24 -88 11 -88 -18 0 -21 -29
-35 -43 -21 -7 7 -5 17 8 31 15 16 16 24 7 45 -10 21 -8 27 13 43 l25 20 -22
5 c-12 4 -36 0 -52 -8 -16 -8 -34 -15 -41 -15 -7 0 -20 29 -30 65 -17 65 -37
96 -50 75z"/>
<path d="M3031 4221 c-7 -13 -11 -35 -8 -48 3 -17 -2 -32 -14 -44 -18 -18 -20
-18 -25 -2 -21 65 -26 73 -41 61 -23 -19 -8 -108 24 -134 21 -18 24 -27 18
-53 -4 -20 -2 -37 5 -46 17 -21 30 -19 30 4 0 19 3 19 38 7 23 -8 43 -24 52
-42 8 -15 21 -34 28 -42 6 -7 12 -25 12 -38 0 -30 24 -89 39 -99 6 -3 25 -3
42 0 23 5 28 10 19 20 -7 8 -7 15 -1 19 5 4 10 19 11 34 0 15 2 42 3 61 2 30
-3 37 -38 57 -22 13 -50 23 -61 24 -27 0 -57 44 -49 70 3 10 0 28 -7 39 -10
16 -10 23 0 33 9 9 6 18 -15 41 -16 15 -33 45 -39 65 -10 37 -10 37 -23 13z"/>
<path d="M3991 4221 c-7 -13 -11 -35 -8 -48 3 -17 -2 -32 -14 -44 -18 -18 -20
-18 -25 -2 -30 92 -50 95 -46 7 2 -50 6 -62 28 -80 22 -18 25 -27 19 -53 -4
-20 -2 -37 5 -46 17 -21 30 -19 30 4 0 19 3 19 38 7 23 -8 43 -24 52 -42 8
-15 21 -34 28 -42 6 -7 12 -25 12 -38 0 -35 27 -94 42 -94 23 1 65 46 67 71 7
94 8 91 -34 115 -22 13 -50 23 -61 24 -27 0 -57 44 -49 70 3 10 0 28 -7 39
-10 16 -10 23 0 33 9 9 6 18 -15 41 -16 15 -33 45 -39 65 -10 37 -10 37 -23
13z"/>
<path d="M2697 3874 c-4 -4 -7 -16 -7 -27 0 -11 -7 -28 -15 -37 -18 -20 -9
-55 22 -83 17 -14 25 -16 48 -7 16 6 34 9 42 6 23 -9 15 45 -15 99 -25 47 -56
67 -75 49z"/>
<path d="M3657 3874 c-4 -4 -7 -16 -7 -27 0 -11 -7 -28 -15 -37 -18 -20 -9
-55 22 -83 17 -14 25 -16 48 -7 16 6 34 9 42 6 23 -9 15 45 -15 99 -25 47 -56
67 -75 49z"/>
<path d="M3115 3793 c-4 -17 -15 -40 -24 -50 -9 -11 -21 -28 -27 -39 -6 -10
-22 -19 -34 -19 -18 0 -26 -9 -36 -40 l-12 -40 -1 33 c-1 18 4 42 10 54 16 30
0 37 -22 9 -16 -20 -19 -37 -17 -94 2 -45 7 -72 16 -75 6 -2 12 5 12 15 1 11
8 5 21 -19 11 -21 26 -38 34 -38 8 0 15 -4 15 -10 0 -5 6 -10 14 -10 16 0 31
34 21 50 -3 5 6 21 20 34 16 15 22 27 15 31 -18 11 -11 21 35 54 25 18 45 35
45 39 0 4 -13 14 -28 23 -23 13 -31 27 -39 70 -10 52 -10 53 -18 22z"/>
<path d="M4075 3793 c-4 -17 -15 -40 -24 -50 -9 -11 -21 -28 -27 -39 -6 -10
-22 -19 -34 -19 -18 0 -26 -9 -36 -40 l-12 -40 -1 33 c-1 18 4 42 10 54 16 29
0 37 -22 9 -14 -17 -19 -39 -19 -88 l0 -64 99 80 99 80 -8 38 c-18 82 -17 80
-25 46z"/>
<path d="M3295 3690 c-3 -5 -4 -14 -1 -19 4 -5 -1 -39 -9 -74 -11 -46 -13 -82
-7 -119 7 -50 9 -53 34 -50 20 2 33 -6 56 -34 26 -31 32 -34 51 -25 20 11 21
9 21 -28 0 -32 6 -44 33 -67 28 -24 32 -25 36 -9 1 10 14 30 28 44 17 19 23
33 19 53 -3 17 0 28 9 32 18 7 20 57 3 74 -24 24 -88 11 -88 -18 0 -21 -29
-35 -43 -21 -7 7 -5 17 8 31 15 16 16 24 7 45 -10 21 -8 27 13 43 l25 20 -22
5 c-12 4 -36 0 -52 -8 -16 -8 -34 -15 -41 -15 -7 0 -20 29 -30 65 -17 65 -37
96 -50 75z"/>
<path d="M2340 3584 c-30 -34 -31 -39 -24 -93 8 -70 10 -72 38 -65 18 4 30 -2
54 -31 26 -32 32 -35 51 -26 20 11 21 9 21 -28 0 -32 6 -44 33 -67 28 -24 32
-25 36 -9 1 10 14 30 28 44 17 19 23 33 19 53 -3 17 0 28 9 32 18 7 20 57 3
74 -24 24 -88 11 -88 -18 0 -21 -29 -35 -43 -21 -7 7 -5 17 8 31 15 16 16 24
7 45 -10 21 -8 27 13 43 l25 20 -22 5 c-12 4 -36 0 -52 -8 -43 -22 -54 -19
-62 20 -3 19 -10 35 -14 35 -4 0 -22 -16 -40 -36z"/>
<path d="M2071 3261 c-7 -13 -11 -35 -8 -48 3 -17 -2 -32 -14 -44 -18 -18 -20
-18 -25 -2 -30 92 -50 95 -46 7 2 -50 6 -62 28 -80 22 -18 25 -27 19 -53 -4
-20 -2 -37 5 -46 17 -21 30 -19 30 4 0 19 3 19 38 7 23 -8 43 -24 52 -42 8
-15 21 -34 28 -42 6 -7 12 -25 12 -38 0 -30 24 -89 39 -99 6 -3 25 -3 42 0 23
5 28 10 19 20 -7 8 -7 15 -1 19 5 4 10 19 11 34 0 15 2 42 3 61 2 30 -3 37
-38 57 -22 13 -50 23 -61 24 -27 0 -57 44 -49 70 3 10 0 28 -7 39 -10 16 -10
23 0 33 9 9 6 18 -15 41 -16 15 -33 45 -39 65 -10 37 -10 37 -23 13z"/>
<path d="M3031 3261 c-7 -13 -11 -35 -8 -48 3 -17 -2 -32 -14 -44 -18 -18 -20
-18 -25 -2 -30 92 -50 95 -46 7 2 -50 6 -62 28 -80 22 -18 25 -27 19 -53 -4
-20 -2 -37 5 -46 17 -21 30 -19 30 4 0 19 3 19 38 7 23 -8 43 -24 52 -42 8
-16 16 -31 17 -33 1 -1 18 9 37 24 38 29 39 45 2 45 -29 0 -60 43 -51 70 3 10
0 28 -7 39 -10 16 -10 23 0 33 9 9 6 18 -15 41 -16 15 -33 45 -39 65 -10 37
-10 37 -23 13z"/>
<path d="M1737 2914 c-4 -4 -7 -16 -7 -27 0 -11 -7 -28 -15 -37 -18 -20 -9
-55 22 -83 17 -14 25 -16 48 -7 16 6 34 9 42 6 23 -9 15 45 -15 99 -25 47 -56
67 -75 49z"/>
<path d="M2697 2914 c-4 -4 -7 -16 -7 -27 0 -11 -7 -28 -15 -37 -18 -20 -9
-55 22 -83 17 -14 25 -16 48 -7 16 6 34 9 42 6 23 -9 15 45 -15 99 -25 47 -56
67 -75 49z"/>
<path d="M2155 2833 c-4 -17 -15 -40 -24 -50 -9 -11 -21 -28 -27 -39 -6 -10
-22 -19 -34 -19 -18 0 -26 -9 -36 -40 l-12 -40 -1 33 c-1 18 4 42 10 54 16 30
0 37 -22 9 -16 -20 -19 -37 -17 -94 2 -45 7 -72 16 -75 6 -2 12 5 12 15 1 11
8 5 21 -19 11 -21 26 -38 34 -38 8 0 15 -4 15 -10 0 -5 6 -10 14 -10 16 0 31
34 21 50 -3 5 6 21 20 34 16 15 22 27 15 31 -18 11 -11 21 35 54 25 18 45 35
45 39 0 4 -13 14 -28 23 -23 13 -31 27 -39 70 -10 52 -10 53 -18 22z"/>
<path d="M2335 2730 c-3 -5 -4 -14 -1 -19 4 -5 -1 -39 -9 -74 -11 -46 -13 -82
-7 -119 7 -50 9 -53 34 -50 20 2 33 -6 56 -34 26 -31 32 -34 51 -25 12 7 21 9
21 6 0 -4 27 15 60 41 33 26 60 51 60 55 0 10 -41 12 -64 3 -9 -3 -16 -14 -16
-24 0 -21 -29 -35 -43 -21 -7 7 -5 17 8 31 15 16 16 24 7 45 -10 21 -8 27 13
43 l25 20 -22 5 c-12 4 -36 0 -52 -8 -16 -8 -34 -15 -41 -15 -7 0 -20 29 -30
65 -17 65 -37 96 -50 75z"/>
<path d="M1387 2642 c-32 -34 -39 -64 -29 -127 7 -46 10 -50 34 -47 20 2 33
-6 56 -34 26 -31 32 -34 51 -25 20 11 21 9 21 -28 0 -32 6 -44 33 -67 28 -24
32 -25 36 -9 1 10 14 30 28 44 17 19 23 33 19 53 -3 17 0 28 9 32 18 7 20 57
3 74 -24 24 -88 11 -88 -18 0 -21 -29 -35 -43 -21 -7 7 -5 17 8 31 15 16 16
24 7 45 -10 21 -8 27 13 43 l25 20 -22 5 c-12 4 -36 0 -52 -8 -43 -22 -54 -19
-62 20 -8 47 -16 49 -47 17z"/>
<path d="M1111 2301 c-7 -13 -11 -35 -8 -48 3 -17 -2 -32 -14 -44 -18 -18 -20
-18 -25 -2 -30 92 -50 95 -46 7 2 -50 6 -62 28 -80 22 -18 25 -27 20 -52 l-7
-30 75 -1 c70 -1 93 8 65 25 -6 3 -8 17 -5 30 4 13 1 33 -6 44 -10 15 -10 22
0 32 9 9 6 18 -15 41 -16 15 -33 45 -39 65 -10 37 -10 37 -23 13z"/>
<path d="M2071 2301 c-7 -13 -11 -35 -8 -48 3 -17 -2 -32 -14 -44 -18 -18 -20
-18 -25 -2 -30 92 -50 95 -46 7 2 -50 6 -62 28 -80 22 -18 25 -27 19 -53 -4
-20 -2 -37 5 -46 17 -21 30 -19 30 4 0 19 3 19 38 7 23 -8 43 -24 52 -42 8
-15 21 -34 28 -42 6 -7 12 -25 12 -38 0 -30 24 -89 39 -99 6 -3 25 -3 42 0 23
5 28 10 19 20 -7 8 -7 15 -1 19 5 4 10 19 11 34 0 15 2 42 3 61 2 30 -3 37
-38 57 -22 13 -50 23 -61 24 -27 0 -57 44 -49 70 3 10 0 28 -7 39 -10 16 -10
23 0 33 9 9 6 18 -15 41 -16 15 -33 45 -39 65 -10 37 -10 37 -23 13z"/>
<path d="M3031 2301 c-7 -13 -11 -35 -8 -48 3 -17 -2 -32 -14 -44 -18 -18 -20
-18 -25 -2 -30 92 -50 95 -46 7 2 -50 6 -62 28 -80 22 -18 25 -27 19 -53 -4
-20 -2 -37 5 -46 17 -21 30 -19 30 4 0 19 3 19 38 7 24 -8 42 -23 53 -43 l15
-30 43 25 c44 26 42 42 -5 42 -27 0 -57 44 -49 70 3 10 0 28 -7 39 -10 16 -10
23 0 33 9 9 6 18 -15 41 -16 15 -33 45 -39 65 -10 37 -10 37 -23 13z"/>
<path d="M1737 1954 c-4 -4 -7 -16 -7 -27 0 -11 -7 -28 -15 -37 -18 -20 -9
-55 22 -83 17 -14 25 -16 48 -7 16 6 34 9 42 6 23 -9 15 45 -15 99 -25 47 -56
67 -75 49z"/>
<path d="M2697 1954 c-4 -4 -7 -16 -7 -27 0 -11 -7 -28 -15 -37 -18 -20 -9
-55 22 -83 17 -14 25 -16 48 -7 16 6 34 9 42 6 23 -9 15 45 -15 99 -25 47 -56
67 -75 49z"/>
<path d="M2155 1873 c-4 -17 -15 -40 -24 -50 -9 -11 -21 -28 -27 -39 -6 -10
-22 -19 -34 -19 -18 0 -26 -9 -36 -40 l-12 -40 -1 33 c-1 18 4 42 10 54 16 30
0 37 -22 9 -16 -20 -19 -37 -17 -94 2 -45 7 -72 16 -75 6 -2 12 5 12 15 1 11
8 5 21 -19 11 -21 26 -38 34 -38 8 0 15 -4 15 -10 0 -5 6 -10 14 -10 16 0 31
34 21 50 -3 5 6 21 20 34 16 15 22 27 15 31 -18 11 -11 21 35 54 25 18 45 35
45 39 0 4 -13 14 -28 23 -23 13 -31 27 -39 70 -10 52 -10 53 -18 22z"/>
<path d="M2335 1770 c-3 -5 -4 -14 -1 -19 4 -5 -1 -39 -9 -75 -13 -57 -12
-146 2 -146 2 0 49 26 104 57 87 50 97 58 78 65 -14 5 -32 3 -52 -7 -16 -8
-35 -15 -42 -15 -7 0 -20 29 -30 65 -17 65 -37 96 -50 75z"/>
<path d="M1391 1626 c-28 -29 -32 -39 -29 -77 3 -41 5 -44 30 -41 20 2 33 -6
56 -34 26 -31 32 -34 51 -25 20 11 21 9 21 -28 0 -32 6 -44 33 -67 28 -24 32
-25 36 -9 1 10 14 30 28 44 17 19 23 33 19 53 -3 17 0 28 9 32 18 7 20 57 3
74 -24 24 -88 11 -88 -18 0 -21 -29 -35 -43 -21 -7 7 -5 17 8 31 15 16 16 24
7 45 -10 21 -8 27 13 43 l25 20 -22 5 c-12 4 -36 0 -52 -8 -37 -19 -56 -19
-56 0 0 23 -13 18 -49 -19z"/>
<path d="M1110 1315 c-7 -8 -10 -22 -6 -30 7 -18 -30 -59 -40 -44 -7 13 -44
-18 -44 -37 0 -8 12 -21 26 -30 22 -15 25 -22 19 -51 -4 -21 -2 -40 6 -49 16
-20 29 -17 29 5 0 19 3 19 38 7 23 -8 43 -24 52 -42 8 -15 21 -34 28 -42 6 -7
12 -26 12 -41 0 -15 3 -30 6 -33 3 -4 30 8 60 25 46 26 54 36 52 56 -3 27 -67
70 -104 71 -27 0 -57 44 -49 71 4 11 1 27 -6 35 -10 12 -10 20 -2 34 10 14 7
22 -18 46 -16 15 -29 36 -29 46 0 22 -13 23 -30 3z"/>
<path d="M538 678 c-14 -13 -50 -49 -79 -82 -42 -46 -49 -57 -31 -51 17 5 30
1 47 -15 22 -21 24 -21 54 -5 18 9 29 20 25 26 -3 6 2 19 12 30 14 16 15 24 6
44 -10 21 -8 27 15 45 14 11 21 20 15 20 -6 0 -17 3 -25 6 -8 3 -26 -5 -39
-18z"/>
</g>
</svg>
